<svg width="121" height="60" viewBox="0 0 121 60" fill="none" xmlns="http://www.w3.org/2000/svg">
<path d="M0.535156 0H20.5747L34.3591 33.5922H35.0541L48.8385 0H68.878V27.4379H69.5402C69.7179 26.778 70.2256 25.8643 71.0631 24.6967C71.6723 23.8338 72.3702 23.0596 73.157 22.3744C73.9946 21.6383 75.1495 21.0038 76.6216 20.4708C78.0937 19.9378 79.6292 19.6713 81.2282 19.6713C82.9795 19.6713 84.6166 19.9378 86.1394 20.4708C87.6877 20.9784 88.8806 21.6256 89.7182 22.4124C91.3172 23.9353 92.3705 25.3566 92.8781 26.6764L93.1066 27.4379H93.7157C93.9441 26.6003 94.401 25.6866 95.0863 24.6967C95.5939 23.9099 96.2919 23.1358 97.1802 22.3744C98.0939 21.6383 99.2868 21.0038 100.759 20.4708C102.231 19.9378 103.779 19.6713 105.404 19.6713C115.277 19.6713 120.213 25.1282 120.213 36.042V59.418H104.642V39.6208C104.642 35.4075 102.954 33.3009 99.5787 33.3009C96.203 33.3009 94.5152 35.2172 94.5152 39.0497V59.418H78.9059V39.6208C78.9059 35.4075 77.218 33.3009 73.8424 33.3009C70.9392 33.3009 69.2844 34.8591 68.878 37.9754V59.3077H68.7788V59.418H53.1695V59.3077H53.1244V25.0204H52.6611L39.4558 58.8443H29.9573L16.7521 24.7888H16.2888V59.3077H0.535156V0Z" fill="white"/>
<path d="M75.006 1.24432e-05C75.006 1.24432e-05 74.1772 6.55467 79.0418 11.2407C84.7609 16.7501 97.6097 15.7528 97.6097 15.7528H120.213V1.24432e-05H75.006Z" fill="white"/>
</svg>
