<svg width="91" height="52" viewBox="0 0 91 52" fill="none" xmlns="http://www.w3.org/2000/svg">
<path d="M7.38878 0.0600586C3.47398 0.0600586 0.226318 2.96932 0.226318 6.4762V44.973C0.226318 48.4799 3.47398 51.3892 7.38878 51.3892H83.1062C87.021 51.3892 90.2687 48.4799 90.2687 44.973V6.4762C90.2687 2.96932 87.021 0.0600586 83.1062 0.0600586H7.38878ZM11.2577 5.55961H79.2373L46.3667 31.797C45.9123 32.1594 44.5827 32.1594 44.1283 31.797L11.2577 5.55961ZM6.36557 9.02541L28.3006 26.498L6.36557 42.6243V9.02541ZM84.1294 9.02541V42.6243L62.1944 26.498L84.1294 9.02541ZM32.9371 30.2216L40.0675 35.8931C43.048 38.2705 47.447 38.2705 50.4275 35.8931L57.5579 30.2216L78.8536 45.8896H11.6414L32.9371 30.2216Z" fill="white"/>
</svg>
