<svg width="101" height="50" viewBox="0 0 101 50" fill="none" xmlns="http://www.w3.org/2000/svg">
<path d="M0.411133 0.411621H17.1355L28.6396 28.4467H29.2196L40.7237 0.411621H57.4481V23.3105H58.0007C58.149 22.7597 58.5727 21.9972 59.2717 21.0228C59.7801 20.3026 60.3626 19.6565 61.0192 19.0846C61.7182 18.4703 62.682 17.9408 63.9106 17.4959C65.1392 17.0511 66.4207 16.8287 67.7552 16.8287C69.2167 16.8287 70.583 17.0511 71.8539 17.4959C73.146 17.9196 74.1416 18.4597 74.8406 19.1164C76.1751 20.3873 77.0542 21.5735 77.4778 22.675L77.6685 23.3105H78.1768C78.3675 22.6114 78.7487 21.8489 79.3207 21.0228C79.7443 20.3661 80.3269 19.7201 81.0682 19.0846C81.8308 18.4703 82.8263 17.9408 84.0549 17.4959C85.2835 17.0511 86.5756 16.8287 87.9313 16.8287C96.1711 16.8287 100.291 21.3829 100.291 30.4912V50.0001H87.2958V33.4779C87.2958 29.9617 85.8872 28.2036 83.0699 28.2036C80.2527 28.2036 78.8441 29.8028 78.8441 33.0013V50.0001H65.817V33.4779C65.817 29.9617 64.4084 28.2036 61.5912 28.2036C59.1682 28.2036 57.7872 29.504 57.4481 32.1048V49.9081H57.3653V50.0001H44.3382V49.9081H44.3006V21.2929H43.9139L32.8932 49.5214H24.966L13.9453 21.0996H13.5586V49.9081H0.411133V0.411621Z" fill="white"/>
<path d="M62.5623 0.411631C62.5623 0.411631 61.8706 5.88196 65.9304 9.79278C70.7035 14.3907 81.4267 13.5584 81.4267 13.5584H100.291V0.411631H62.5623Z" fill="white"/>
</svg>
