<svg width="79" height="71" viewBox="0 0 79 71" fill="none" xmlns="http://www.w3.org/2000/svg">
<path fill-rule="evenodd" clip-rule="evenodd" d="M5.79313 12.3041C2.42031 16.0832 1.71433 21.3182 3.96595 25.8353C3.96841 25.8424 3.97258 25.8507 3.97662 25.8577C7.18812 32.0322 13.624 41.4202 26.1743 50.8066C38.7264 60.1943 50.0594 64.0945 57.3139 65.724C57.3205 65.7263 57.3286 65.7271 57.3353 65.7295C62.6089 66.8459 68.0597 65.1713 71.4273 61.4013C73.1047 59.549 74.9095 57.5259 76.2403 56.0341C77.03 55.1505 77.3944 54.0091 77.2541 52.8612C77.1138 51.7132 76.479 50.6539 75.4928 49.9163C72.1534 47.4188 66.2468 43.0012 62.9074 40.5037C61.9212 39.7661 60.6609 39.4079 59.4043 39.5112C58.1478 39.6145 56.999 40.1692 56.2111 41.0541L51.3223 46.5325C50.8794 47.0307 50.1208 47.1906 49.4685 46.9281C46.7327 45.6381 41.8515 43.1012 36.5713 39.1522C31.2964 35.207 27.6075 31.3369 25.705 29.1553C25.2743 28.6183 25.2883 27.8975 25.7356 27.3961L25.7398 27.3914C27.1055 25.8457 29.1237 23.5851 30.6156 21.9111C31.4053 21.0276 31.7697 19.8862 31.6294 18.7382C31.4891 17.5902 30.8542 16.531 29.868 15.7934C26.5287 13.2958 20.622 8.87824 17.2826 6.38071C16.2964 5.64313 15.0361 5.28497 13.7796 5.38826C12.523 5.49155 11.3745 6.04773 10.5863 6.93116L5.79313 12.3041ZM8.27441 14.1599L13.0676 8.78693C13.3299 8.49298 13.7137 8.30702 14.132 8.27263C14.5504 8.23824 14.9716 8.35802 15.2997 8.60344L27.8851 18.0161C28.2133 18.2615 28.4255 18.6156 28.4722 18.9977C28.5189 19.3799 28.3965 19.7614 28.1343 20.0554C26.6378 21.7312 24.6186 23.9962 23.2501 25.545C21.8939 27.0637 21.8639 29.2584 23.1812 30.8661C23.1921 30.8768 23.2014 30.8877 23.2109 30.9001C25.1918 33.1757 29.0538 37.2355 34.5884 41.3749C40.1213 45.513 45.2351 48.1662 48.0606 49.4984C48.0759 49.5059 48.0926 49.5118 48.1078 49.5193C50.0948 50.3829 52.4421 49.9161 53.8052 48.3881L58.6924 42.9099C58.9546 42.6159 59.3384 42.43 59.7568 42.3956C60.1751 42.3612 60.5963 42.481 60.9245 42.7264L73.5099 52.1391C73.838 52.3845 74.0503 52.7385 74.097 53.1207C74.1437 53.5029 74.0213 53.8844 73.759 54.1783C72.4324 55.6654 70.6318 57.6838 68.9571 59.5316C68.9558 59.5346 68.9528 59.5363 68.95 59.5394C66.3347 62.4711 62.0997 63.7748 58 62.9101C51.042 61.3451 40.1897 57.5817 28.1572 48.5839C16.1262 39.5845 9.93081 30.5992 6.84873 24.6748C5.10268 21.1635 5.65325 17.0964 8.27441 14.1599Z" fill="white" stroke="white" stroke-width="2"/>
</svg>
